#!OML:ASF E:\emotionWalksFemale\Project 1\Capture day 1\Session 1\Female1.ASF
:FULLY-SPECIFIED
:DEGREES
192
root 7.7893 15.3034 28.8985 -178.111 0.202989 -180.26
lowerback 4.81651 2.14464 -0.434618
upperback -3.79538 2.82898 -2.59152
thorax -6.54824 1.40925 -2.76344
lowerneck -3.57495 -4.03024 -9.72073
upperneck 15.2293 -6.79531 9.37674
head 5.79897 -3.56067 4.11464
rclavicle 1.02871e-014 2.38542e-015
rhumerus -44.2836 15.3922 -99.2245
rradius 34.0739
rwrist 15.9171
rhand -8.94401 -46.0217
rfingers 7.12502
rthumb 17.0003 -75.2978
lclavicle 1.02871e-014 2.38542e-015
lhumerus -44.5035 2.15721 80.7959
lradius 33.4483
lwrist -14.8216
lhand 2.16036 -30.3655
lfingers 7.12502
lthumb 27.6579 -2.37882
rfemur 15.3427 4.84284 27.4259
rtibia 24.361
rfoot -1.72479 -20.9351
rtoes 14.5913
lfemur -24.0996 -23.0309 -17.5514
ltibia 22.5584
lfoot -14.6456 24.0278
ltoes -7.59022
193
root 7.75156 15.3198 28.7606 -178.134 -0.14619 -180.379
lowerback 4.7496 2.22881 -0.392624
upperback -3.87791 2.66264 -2.57512
thorax -6.60348 1.20639 -2.73932
lowerneck -3.60574 -3.97903 -9.79048
upperneck 15.5651 -6.75802 9.30047
head 5.90474 -3.56128 4.10423
rclavicle -1.98785e-014 -1.59028e-014
rhumerus -44.8301 15.7772 -99.3121
rradius 34.2862
rwrist 15.5317
rhand -7.94052 -47.0972
rfingers 7.12502
rthumb 17.9661 -76.2874
lclavicle -1.98785e-014 -1.59028e-014
lhumerus -44.5619 1.92519 80.9327
lradius 33.4792
lwrist -15.6397
lhand 1.83022 -30.9308
lfingers 7.12502
lthumb 27.3422 -2.89386
rfemur 14.1494 3.75667 26.725
rtibia 27.0784
rfoot -0.875698 -20.15
rtoes 16.6859
lfemur -23.3721 -22.6959 -18.2236
ltibia 22.3167
lfoot -14.0024 23.7131
ltoes -10.1855
194
root 7.71107 15.3337 28.6226 -178.315 -0.29782 -180.716
lowerback 4.77011 2.20993 -0.518622
upperback -3.87802 2.61867 -2.63764
thorax -6.62043 1.1868 -2.73062
lowerneck -3.61981 -3.95534 -9.77686
upperneck 15.787 -6.73714 9.15889
head 5.96955 -3.56575 4.05773
rclavicle 3.76697e-014 1.90833e-014
rhumerus -45.3937 16.1625 -99.4397
rradius 34.5974
rwrist 15.0667
rhand -7.2969 -47.6989
rfingers 7.12502
rthumb 18.5853 -76.831
lclavicle 3.76697e-014 1.90833e-014
lhumerus -44.5562 1.62769 81.0502
lradius 33.384
lwrist -16.5175
lhand 0.950926 -31.7923
lfingers 7.12502
lthumb 26.5009 -3.62559
rfemur 13.1574 2.81529 25.7316
rtibia 29.7658
rfoot 0.0256935 -19.6921
rtoes 19.1099
lfemur -22.431 -22.5408 -19.1518
ltibia 22.114
lfoot -13.7984 23.5854
ltoes -12.5503
195
root 7.67017 15.3498 28.4954 -178.388 -0.452195 -180.86
lowerback 4.8061 2.17843 -0.377746
upperback -3.90616 2.58135 -2.68585
thorax -6.66414 1.15902 -2.85893
lowerneck -3.71802 -3.99655 -9.61953
upperneck 15.9751 -6.77278 8.8626
head 6.03534 -3.59281 3.93093
rclavicle 1.6847e-014 -7.95139e-015
rhumerus -45.9045 16.4803 -99.5621
rradius 35.0228
rwrist 14.5517
rhand -6.65875 -48.4362
rfingers 7.12502
rthumb 19.199 -77.5086
lclavicle 1.6847e-014 -7.95139e-015
lhumerus -44.5723 1.31694 81.1497
lradius 33.5562
lwrist -17.0549
lhand 0.487564 -32.3571
lfingers 7.12502
lthumb 26.0573 -4.12432
rfemur 11.9259 1.90826 24.95
rtibia 32.4724
rfoot 1.50139 -19.4121
rtoes 19.9127
lfemur -21.638 -22.0113 -19.8569
ltibia 21.8276
lfoot -13.3308 23.1639
ltoes -15.7123
196
root 7.62989 15.3674 28.37 -178.385 -0.580916 -180.938
lowerback 4.78048 2.13834 -0.194668
upperback -3.94979 2.53769 -2.71624
thorax -6.68819 1.12664 -2.98926
lowerneck -3.85626 -3.99891 -9.44318
upperneck 16.2025 -6.76924 8.62344
head 6.11737 -3.59724 3.82162
rclavicle -6.21202e-015 -1.66979e-014
rhumerus -46.3542 16.9102 -99.7297
rradius 35.4874
rwrist 13.9354
rhand -5.89816 -49.8357
rfingers 7.12502
rthumb 19.9303 -78.8337
lclavicle -6.21202e-015 -1.66979e-014
lhumerus -44.6411 0.777697 81.3749
lradius 34.0335
lwrist -17.0556
lhand -0.0289813 -32.7529
lfingers 7.12502
lthumb 25.5626 -4.44815
rfemur 10.4605 1.07445 24.243
rtibia 35.2974
rfoot 3.19859 -18.9131
rtoes 20.5598
lfemur -20.8291 -21.3943 -20.4556
ltibia 21.3112
lfoot -12.6677 22.7347
ltoes -18.9948
197
root 7.59148 15.3893 28.2458 -178.474 -0.614406 -181.199
lowerback 4.90858 2.14356 -0.286299
upperback -3.9758 2.52996 -2.74587
thorax -6.79316 1.12368 -2.97519
lowerneck -3.92818 -3.93085 -9.41718
upperneck 16.3834 -6.67666 8.51136
head 6.17344 -3.56103 3.78693
rclavicle 3.06128e-014 -7.79236e-014
rhumerus -46.8934 17.5116 -99.9726
rradius 35.8656
rwrist 13.4569
rhand -6.15733 -50.2262
rfingers 7.12502
rthumb 19.6811 -79.2499
lclavicle 3.06128e-014 -7.79236e-014
lhumerus -44.6325 0.0770577 81.7695
lradius 34.4788
lwrist -16.7466
lhand -0.836311 -32.9948
lfingers 7.12502
lthumb 24.7891 -4.58141
rfemur 8.99921 0.228209 23.3349
rtibia 38.194
rfoot 5.17695 -18.2062
rtoes 20.5271
lfemur -19.8186 -20.9428 -21.2348
ltibia 20.6462
lfoot -12.3014 22.439
ltoes -20.0046
198
root 7.55509 15.412 28.12 -178.655 -0.514583 -181.664
lowerback 5.10002 2.20226 -0.639417
upperback -3.96222 2.56906 -2.79178
thorax -6.90184 1.15557 -2.83825
lowerneck -3.96687 -3.89984 -9.43008
upperneck 16.4694 -6.60515 8.3314
head 6.19587 -3.53831 3.7358
rclavicle -1.49089e-015 2.94201e-014
rhumerus -47.5266 18.1323 -100.206
rradius 36.1982
rwrist 13.3615
rhand -7.07477 -49.4878
rfingers 7.12502
rthumb 18.7989 -78.5994
lclavicle -1.49089e-015 2.94201e-014
lhumerus -44.5113 -0.464319 82.1707
lradius 34.788
lwrist -16.2411
lhand -1.53343 -32.9863
lfingers 7.12502
lthumb 24.1208 -4.48264
rfemur 7.63271 -0.708302 22.1978
rtibia 41.1385
rfoot 7.50859 -17.1421
rtoes 17.9664
lfemur -18.5963 -20.6686 -22.2113
ltibia 19.8172
lfoot -12.1786 22.2513
ltoes -19.611
199
root 7.51894 15.431 27.991 -178.763 -0.324336 -182.062
lowerback 5.0944 2.29642 -0.826817
upperback -3.96776 2.6664 -2.88135
thorax -6.90555 1.20683 -2.83744
lowerneck -3.86004 -3.92047 -9.41368
upperneck 16.4756 -6.62166 8.169
head 6.17572 -3.56003 3.68135
rclavicle 2.91716e-014 -5.24792e-014
rhumerus -48.0443 18.491 -100.348
rradius 36.4936
rwrist 13.4857
rhand -7.20275 -49.1824
rfingers 7.12502
rthumb 18.6758 -78.3059
lclavicle 2.91716e-014 -5.24792e-014
lhumerus -44.4217 -0.851026 82.4086
lradius 35.0461
lwrist -15.7617
lhand -1.94794 -33.0342
lfingers 7.12502
lthumb 23.7233 -4.47842
rfemur 6.18884 -1.48754 21.168
rtibia 44.1021
rfoot 9.35546 -16.1954
rtoes 16.4839
lfemur -17.2696 -20.4117 -23.0722
ltibia 18.6666
lfoot -11.9116 22.1082
ltoes -18.8875
200
root 7.48268 15.4494 27.8645 -178.88 -0.138199 -182.471
lowerback 5.01552 2.39442 -0.955099
upperback -3.93351 2.77527 -2.99921
thorax -6.82016 1.26133 -2.89521
lowerneck -3.25021 -3.85697 -9.65481
upperneck 15.9824 -6.56035 8.40206
head 5.92346 -3.53966 3.81412
rclavicle -1.36664e-014 -1.11319e-014
rhumerus -48.3134 18.6315 -100.325
rradius 36.7769
rwrist 13.5966
rhand -6.35601 -49.6557
rfingers 7.12502
rthumb 19.4901 -78.6988
lclavicle -1.36664e-014 -1.11319e-014
lhumerus -44.3397 -1.2356 82.6058
lradius 35.4625
lwrist -15.1895
lhand -1.80452 -33.0265
lfingers 7.12502
lthumb 23.8609 -4.48862
rfemur 4.76587 -2.02465 20.2015
rtibia 47.0052
rfoot 10.6811 -15.7873
rtoes 19.4602
lfemur -15.7841 -20.1461 -23.9587
ltibia 17.2251
lfoot -11.4016 21.898
ltoes -17.9858
201
root 7.44893 15.465 27.7423 -179.1 0.0266343 -183.105
lowerback 5.04258 2.19698 -1.50931
upperback -3.78587 2.82237 -3.10081
thorax -6.69702 1.45949 -2.70942
lowerneck -2.90791 -3.75913 -9.73964
upperneck 15.4915 -6.4099 8.53992
head 5.70309 -3.46017 3.89082
rclavicle 4.77083e-014 -2.78299e-014
rhumerus -48.3318 18.8328 -100.225
rradius 37.0921
rwrist 13.617
rhand -5.66471 -50.3627
rfingers 7.12502
rthumb 20.1546 -79.3372
lclavicle 4.77083e-014 -2.78299e-014
lhumerus -44.1617 -1.56564 82.8298
lradius 36.1516
lwrist -14.2208
lhand -1.57723 -32.7209
lfingers 7.12502
lthumb 24.0788 -4.21169
rfemur 3.46012 -2.48824 19.0466
rtibia 49.7792
rfoot 12.0997 -15.7518
rtoes 23.3556
lfemur -14.1839 -20.1286 -25.0712
ltibia 15.6962
lfoot -10.9138 21.9585
ltoes -17.6027
202
root 7.41855 15.4808 27.6279 -179.293 0.188951 -183.685
lowerback 5.27852 2.15893 -2.10406
upperback -3.65744 2.71817 -3.20478
thorax -6.72388 1.43537 -2.48245
lowerneck -3.43982 -3.73933 -9.352
upperneck 15.7298 -6.32134 8.20808
head 5.83994 -3.3992 3.7156
rclavicle -2.7482e-014 -1.43125e-014
rhumerus -48.3088 19.1463 -100.243
rradius 37.4104
rwrist 13.4886
rhand -5.18482 -50.7924
rfingers 7.12502
rthumb 20.6158 -79.7176
lclavicle -2.7482e-014 -1.43125e-014
lhumerus -43.9088 -1.72016 82.8637
lradius 36.6747
lwrist -13.3465
lhand -2.33768 -32.8097
lfingers 7.12502
lthumb 23.3495 -4.20594
rfemur 2.04632 -3.01491 17.9781
rtibia 52.4082
rfoot 13.5664 -15.8068
rtoes 24.2022
lfemur -12.6046 -20.106 -26.0714
ltibia 14.04
lfoot -10.4369 22.1418
ltoes -17.7623
